<?xml version="1.0" encoding="UTF-8" standalone="no"?>
<!-- Created with Inkscape (http://www.inkscape.org/) -->

<svg
   width="206.73637"
   height="187.13142"
   viewBox="0 0 54.698997 49.511854"
   version="1.1"
   id="svg978"
   xml:space="preserve"
   sodipodi:docname="kijeteCute.svg"
   inkscape:version="1.2.2 (732a01da63, 2022-12-09)"
   xmlns:inkscape="http://www.inkscape.org/namespaces/inkscape"
   xmlns:sodipodi="http://sodipodi.sourceforge.net/DTD/sodipodi-0.dtd"
   xmlns="http://www.w3.org/2000/svg"
   xmlns:svg="http://www.w3.org/2000/svg"><sodipodi:namedview
     id="namedview16"
     pagecolor="#ffffff"
     bordercolor="#000000"
     borderopacity="0.25"
     inkscape:showpageshadow="2"
     inkscape:pageopacity="0.0"
     inkscape:pagecheckerboard="0"
     inkscape:deskcolor="#d1d1d1"
     showgrid="false"
     inkscape:zoom="1.2611457"
     inkscape:cx="97.926826"
     inkscape:cy="93.565712"
     inkscape:window-width="1440"
     inkscape:window-height="837"
     inkscape:window-x="-8"
     inkscape:window-y="-8"
     inkscape:window-maximized="1"
     inkscape:current-layer="svg978" /><defs
     id="defs975"><linearGradient
       id="linearGradient2140"><stop
         style="stop-color:#ffffff;stop-opacity:1;"
         offset="0"
         id="stop2136" /><stop
         style="stop-color:#333333;stop-opacity:0;"
         offset="1"
         id="stop2138" /></linearGradient><linearGradient
       id="linearGradient2130"><stop
         style="stop-color:#ffffff;stop-opacity:1;"
         offset="0"
         id="stop2126" /><stop
         style="stop-color:#ffffff;stop-opacity:0;"
         offset="1"
         id="stop2128" /></linearGradient></defs><g
     id="g1421"
     transform="translate(-86.692635,-9.9145222)"><g
       id="g1413"
       style="display:inline;mix-blend-mode:normal;fill:#ffffff;fill-opacity:1"
       transform="matrix(0.89935786,0,0,0.89935786,22.770093,-0.21251255)"><path
         style="font-size:273.277px;line-height:1.25;font-family:'linja pona 4.2';-inkscape-font-specification:'linja pona 4.2, ';fill:#ffffff;fill-opacity:1;fill-rule:evenodd;stroke-width:1.82532"
         d="m 100.06182,28.637629 c 0,1.971361 1.6063,3.50464 3.50464,3.50464 1.89835,0 3.43163,-1.533279 3.43163,-3.50464 0,-1.898346 -1.53328,-3.431628 -3.43163,-3.431628 -1.89834,0 -3.50464,1.533282 -3.50464,3.431628 z"
         id="path1405"
         inkscape:label="leftEye" /><path
         style="font-size:273.277px;line-height:1.25;font-family:'linja pona 4.2';-inkscape-font-specification:'linja pona 4.2, ';display:inline;fill-opacity:1;fill-rule:evenodd;stroke-width:1.82532"
         d="m 109.7726,28.637629 c 0,1.971361 1.53328,3.50464 3.50464,3.50464 1.89834,0 3.43162,-1.533279 3.43162,-3.50464 0,-1.898346 -1.53328,-3.431628 -3.43162,-3.431628 -1.97136,0 -3.50464,1.533282 -3.50464,3.431628 z"
         id="path1407"
         inkscape:label="rightEye" /><path
         id="path1409"
         style="font-size:273.277px;line-height:1.25;font-family:'linja pona 4.2';-inkscape-font-specification:'linja pona 4.2, ';display:inline;fill:#ffffff;fill-opacity:1;stroke-width:1.82532"
         d="m 112.1823,11.260294 c -0.29205,0 -6.79028,0.07297 -13.361462,4.307747 -9.418703,6.060096 -12.99669,16.793175 -13.21573,27.453104 H 82.8306 c -7.520358,0 -11.754837,5.402892 -11.754837,12.412162 0,6.571186 3.358437,10.879439 9.929626,10.879439 H 104.0045 l -3.7238,-12.850378 -3.431318,0.948779 2.336292,8.323523 H 89.182667 V 44.846357 c 0,-14.383601 5.914283,-27.818039 21.612113,-29.789395 l 1.31414,5.111315 13.65343,10.951786 -7.81245,5.18418 v 29.716014 h 3.57808 V 38.275182 l 10.36784,-6.863147 -16.57418,-13.288077 -1.75235,-6.863664 z M 82.246657,46.672085 H 82.8306 85.605108 V 62.73467 h -3.358451 z m -3.65094,0.948779 v 14.74897 c -3.139569,-1.022182 -3.942395,-3.79696 -3.942395,-6.936527 0,-3.212582 1.09488,-6.206154 3.942395,-7.812443 z" /><path
         style="font-size:273.277px;line-height:1.25;font-family:'linja pona 4.2';-inkscape-font-specification:'linja pona 4.2, ';display:inline;fill:#ffffff;fill-opacity:1;stroke-width:1.82532"
         d="M 113.20422,66.020463 V 50.9067 h -3.57765 v 15.113763 z"
         id="path1411" /></g></g></svg>
