<?xml version="1.0" encoding="UTF-8" standalone="no"?>
<!-- Created with Inkscape (http://www.inkscape.org/) -->

<svg
   width="500"
   height="500"
   viewBox="0 0 132.29166 132.29167"
   version="1.1"
   id="svg351"
   xml:space="preserve"
   xmlns="http://www.w3.org/2000/svg"
   xmlns:svg="http://www.w3.org/2000/svg"><defs
     id="defs348" /><g
     id="layer1"
     transform="matrix(2.383845,0,0,2.383845,-182.85487,-286.16885)"
     style="display:inline"><path
       id="path1833"
       style="font-size:273.277px;line-height:1.25;font-family:'linja pona 4.2';-inkscape-font-specification:'linja pona 4.2, ';mix-blend-mode:normal;fill:#808080;fill-opacity:1;fill-rule:evenodd;stroke-width:1.64162"
       d="m 106.32478,136.28625 c -1.70729,0 -3.15227,1.37882 -3.15227,3.08612 0,0.8288 0.31619,1.57154 0.82683,2.12752 h 4.6147 c 0.49533,-0.55598 0.79685,-1.29874 0.79685,-2.12752 0,-1.7073 -1.37883,-3.08612 -3.08611,-3.08612 z" /><path
       id="path1407"
       style="font-size:273.277px;line-height:1.25;font-family:'linja pona 4.2';-inkscape-font-specification:'linja pona 4.2, ';display:inline;mix-blend-mode:normal;fill:#808080;fill-opacity:1;fill-rule:evenodd;stroke-width:1.64162"
       d="m 115.05809,136.28625 c -1.77295,0 -3.15174,1.37882 -3.15174,3.08612 0,0.82878 0.30102,1.57154 0.80305,2.12752 h 4.63848 c 0.49531,-0.55598 0.79633,-1.29875 0.79633,-2.12752 0,-1.7073 -1.37883,-3.08612 -3.08612,-3.08612 z" /><path
       id="path1409"
       style="font-size:273.277px;line-height:1.25;font-family:'linja pona 4.2';-inkscape-font-specification:'linja pona 4.2, ';display:inline;mix-blend-mode:normal;fill:#808080;fill-opacity:1;stroke-width:1.64162"
       d="m 114.07338,123.74407 c -0.26266,0 -6.10689,0.0656 -12.01674,3.87421 -8.470781,5.4502 -11.688672,15.10307 -11.885667,24.69016 h -2.495276 c -6.763493,0 -10.571805,4.85914 -10.571805,11.16298 0,5.90985 3.020437,9.78451 8.930287,9.78451 h 20.684431 l -3.34903,-11.55709 -3.08598,0.85329 2.10116,7.48583 h -8.996281 v -16.088 c 0,-12.936 5.319056,-25.01837 19.437021,-26.79132 l 1.18188,4.5969 12.27932,9.84957 -7.02618,4.66244 v 26.72533 h 3.21797 v -24.95275 l 9.3244,-6.17243 -14.90612,-11.95074 -1.57599,-6.17289 z m -26.922857,31.84788 h 0.525174 2.495276 v 14.44601 h -3.02045 z m -3.283501,0.85329 v 13.2646 c -2.823596,-0.91931 -3.545624,-3.41483 -3.545624,-6.23842 0,-2.88926 0.984689,-5.58155 3.545624,-7.02618 z" /><path
       style="font-size:273.277px;line-height:1.25;font-family:'linja pona 4.2';-inkscape-font-specification:'linja pona 4.2, ';display:inline;mix-blend-mode:normal;fill:#808080;fill-opacity:1;stroke-width:1.64162"
       d="m 114.99245,172.99306 v -13.59268 h -3.21759 v 13.59268 z"
       id="path1411" /><g
       transform="matrix(0.08497732,-0.07441939,0.06972036,0.06960996,74.739151,90.921553)"
       id="g1579"
       style="display:inline;fill:#666666;fill-opacity:1;stroke:#1a1a1a"><path
         d="m -50.710628,505.76998 c -20.027,-0.0411 -87.175002,-27.39 -83.085002,-73.893 -1.6652,-17.201 74.523002,-21.082 101.710002,-2.7237 36.7520004,18.541 53.978,54.489 50.319,68.485 -19.5009995,36.187 -41.984,17.458 -68.943,8.1317 z"
         fill="#aa4400"
         stroke="#321605"
         stroke-width="3.9"
         id="path1571"
         style="fill:#666666;fill-opacity:1;stroke:#1a1a1a" /><path
         d="m -34.866628,426.30998 c -12.03,5.8239 -8.3825,13.244 -3.8492,17.469 6.4942,3.7437 11.863,1.4866 15.989,-7.4023 -0.63992,-3.5781 0.42627,-9.9881 -12.14,-10.067 z"
         fill="#aa4400"
         stroke="#4a2108"
         stroke-width="3.9"
         id="path1575"
         style="display:inline;fill:#1a1a1a;fill-opacity:1;stroke:#1a1a1a" /></g></g><g
     id="g976"
     transform="matrix(2.383845,0,0,2.383845,-182.85487,-286.16885)"
     style="display:none"><path
       id="path962"
       style="font-size:273.277px;line-height:1.25;font-family:'linja pona 4.2';-inkscape-font-specification:'linja pona 4.2, ';mix-blend-mode:normal;fill:#6f42c1;fill-opacity:1;fill-rule:evenodd;stroke-width:1.64162"
       d="m 106.32478,136.28625 c -1.70729,0 -3.15227,1.37882 -3.15227,3.08612 0,0.8288 0.31619,1.57154 0.82683,2.12752 h 4.6147 c 0.49533,-0.55598 0.79685,-1.29874 0.79685,-2.12752 0,-1.7073 -1.37883,-3.08612 -3.08611,-3.08612 z" /><path
       id="path964"
       style="font-size:273.277px;line-height:1.25;font-family:'linja pona 4.2';-inkscape-font-specification:'linja pona 4.2, ';display:inline;mix-blend-mode:normal;fill:#6f42c1;fill-opacity:1;fill-rule:evenodd;stroke-width:1.64162"
       d="m 115.05809,136.28625 c -1.77295,0 -3.15174,1.37882 -3.15174,3.08612 0,0.82878 0.30102,1.57154 0.80305,2.12752 h 4.63848 c 0.49531,-0.55598 0.79633,-1.29875 0.79633,-2.12752 0,-1.7073 -1.37883,-3.08612 -3.08612,-3.08612 z" /><path
       id="path966"
       style="font-size:273.277px;line-height:1.25;font-family:'linja pona 4.2';-inkscape-font-specification:'linja pona 4.2, ';display:inline;mix-blend-mode:normal;fill:#cccccc;fill-opacity:1;stroke-width:1.64162"
       d="m 114.07338,123.74407 c -0.26266,0 -6.10689,0.0656 -12.01674,3.87421 -8.470781,5.4502 -11.688672,15.10307 -11.885667,24.69016 h -2.495276 c -6.763493,0 -10.571805,4.85914 -10.571805,11.16298 0,5.90985 3.020437,9.78451 8.930287,9.78451 h 20.684431 l -3.34903,-11.55709 -3.08598,0.85329 2.10116,7.48583 h -8.996281 v -16.088 c 0,-12.936 5.319056,-25.01837 19.437021,-26.79132 l 1.18188,4.5969 12.27932,9.84957 -7.02618,4.66244 v 26.72533 h 3.21797 v -24.95275 l 9.3244,-6.17243 -14.90612,-11.95074 -1.57599,-6.17289 z m -26.922857,31.84788 h 0.525174 2.495276 v 14.44601 h -3.02045 z m -3.283501,0.85329 v 13.2646 c -2.823596,-0.91931 -3.545624,-3.41483 -3.545624,-6.23842 0,-2.88926 0.984689,-5.58155 3.545624,-7.02618 z" /><path
       style="font-size:273.277px;line-height:1.25;font-family:'linja pona 4.2';-inkscape-font-specification:'linja pona 4.2, ';display:inline;mix-blend-mode:normal;fill:#cccccc;fill-opacity:1;stroke-width:1.64162"
       d="m 114.99245,172.99306 v -13.59268 h -3.21759 v 13.59268 z"
       id="path968" /><g
       transform="matrix(0.08497732,-0.07441939,0.06972036,0.06960996,74.739151,90.921553)"
       id="g974"
       style="display:inline;fill:#1a1a1a;fill-opacity:1;stroke:#000000;stroke-opacity:1"><path
         d="m -50.710628,505.76998 c -20.027,-0.0411 -87.175002,-27.39 -83.085002,-73.893 -1.6652,-17.201 74.523002,-21.082 101.710002,-2.7237 36.7520004,18.541 53.978,54.489 50.319,68.485 -19.5009995,36.187 -41.984,17.458 -68.943,8.1317 z"
         fill="#aa4400"
         stroke="#321605"
         stroke-width="3.9"
         id="path970"
         style="fill:#1a1a1a;fill-opacity:1;stroke:#000000;stroke-opacity:1" /><path
         d="m -34.866628,426.30998 c -12.03,5.8239 -8.3825,13.244 -3.8492,17.469 6.4942,3.7437 11.863,1.4866 15.989,-7.4023 -0.63992,-3.5781 0.42627,-9.9881 -12.14,-10.067 z"
         fill="#aa4400"
         stroke="#4a2108"
         stroke-width="3.9"
         id="path972"
         style="display:inline;fill:#1a1a1a;fill-opacity:1;stroke:#000000;stroke-opacity:1" /></g></g></svg>
